<?xml version="1.0" encoding="utf-8"?>
<!-- Generator: Adobe Illustrator 16.0.4, SVG Export Plug-In . SVG Version: 6.00 Build 0)  -->
<!DOCTYPE svg PUBLIC "-//W3C//DTD SVG 1.1//EN" "http://www.w3.org/Graphics/SVG/1.1/DTD/svg11.dtd">
<svg version="1.1" id="Layer_1" xmlns="http://www.w3.org/2000/svg" xmlns:xlink="http://www.w3.org/1999/xlink" x="0px" y="0px"
	 width="274px" height="119px" viewBox="0 0 274 119" enable-background="new 0 0 274 119" xml:space="preserve">
<g id="XMLID_4_">
	<g>
		<path d="M36.51,23.669c-0.52-0.471-1.14-0.431-1.14-0.431h-6.91v38.72h7.12c0,0,0.54,0,1-0.5c0.47-0.51,0.42-1.13,0.42-1.13
			V24.669C37,24.628,36.99,24.108,36.51,23.669z M50.25,19.458l-0.01,45.84c0,0,0.229,3.102-2.12,5.66c-2.29,2.5-4.96,2.5-4.96,2.5
			H27.75v26.17l-14,7v-94.25h28.33c0,0,3.1-0.229,5.67,2.131C50.25,16.798,50.25,19.458,50.25,19.458z"/>
		<path d="M246.05,61.458c0.47-0.51,0.431-1.13,0.431-1.13l0.102-35.66c0,0,0-0.54-0.5-1c-0.512-0.47-1.13-0.43-1.13-0.43h-6.7
			v38.72h6.8C245.05,61.958,245.59,61.958,246.05,61.458z M260.25,19.458v47.08c0,0,0,2.67-2.5,4.96
			c-2.57,2.351-5.67,2.12-5.67,2.12h-27.66v-61.24h27.66c0,0,3.1-0.229,5.67,2.131C260.25,16.798,260.25,19.458,260.25,19.458z"/>
		<polygon points="211.92,12.378 214.25,24.298 199.67,24.298 199.67,38.798 210.92,38.798 210.92,48.958 199.67,48.958 
			199.67,61.958 214.25,61.958 211.92,73.628 185.08,73.628 185.08,12.378 		"/>
		<polygon points="174.92,12.378 174.92,73.458 161.08,73.458 161.08,45.628 152.58,69.128 144.08,45.628 144.08,73.458 
			130.25,73.458 130.25,12.378 144.92,12.378 152.58,37.628 160.25,12.378 		"/>
		<rect x="106.08" y="12.378" width="14.17" height="61.25"/>
		<path d="M96.58,46.548c0,0,0.229,3.101-2.13,5.66c-2.29,2.5-4.96,2.5-4.96,2.5l7.09,18.92H82.25l-6.5-19.25h-1.67v19.25h-14
			v-61.25h28.34c0,0,3.1-0.229,5.66,2.131c2.5,2.289,2.5,4.949,2.5,4.949V46.548z M82.23,42.998l0.1-18.329c0,0,0-0.541-0.5-1
			c-0.51-0.471-1.13-0.431-1.13-0.431h-6.62v21.39h6.72c0,0,0.54,0,1-0.5C82.27,43.618,82.23,42.998,82.23,42.998z"/>
	</g>
</g>
</svg>
