<?xml version="1.0" encoding="utf-8"?>
<!-- Generator: Adobe Illustrator 22.1.0, SVG Export Plug-In . SVG Version: 6.00 Build 0)  -->
<svg version="1.1" id="Layer_1" xmlns="http://www.w3.org/2000/svg" xmlns:xlink="http://www.w3.org/1999/xlink" x="0px" y="0px"
	 viewBox="0 0 274 119" style="enable-background:new 0 0 274 119;" xml:space="preserve">
<style type="text/css">
	.st0{fill:#FFFFFF;}
</style>
<g id="XMLID_4_">
	<g>
		<path class="st0" d="M36.5,23.7c-0.5-0.5-1.1-0.4-1.1-0.4h-6.9V62h7.1c0,0,0.5,0,1-0.5c0.5-0.5,0.4-1.1,0.4-1.1V24.7
			C37,24.6,37,24.1,36.5,23.7z M50.2,19.5l0,45.8c0,0,0.2,3.1-2.1,5.7c-2.3,2.5-5,2.5-5,2.5H27.8v26.2l-14,7V12.4h28.3
			c0,0,3.1-0.2,5.7,2.1C50.2,16.8,50.2,19.5,50.2,19.5z"/>
		<path class="st0" d="M246.1,61.5c0.5-0.5,0.4-1.1,0.4-1.1l0.1-35.7c0,0,0-0.5-0.5-1c-0.5-0.5-1.1-0.4-1.1-0.4h-6.7V62h6.8
			C245.1,62,245.6,62,246.1,61.5z M260.2,19.5v47.1c0,0,0,2.7-2.5,5c-2.6,2.4-5.7,2.1-5.7,2.1h-27.7V12.4h27.7c0,0,3.1-0.2,5.7,2.1
			C260.2,16.8,260.2,19.5,260.2,19.5z"/>
		<polygon class="st0" points="211.9,12.4 214.2,24.3 199.7,24.3 199.7,38.8 210.9,38.8 210.9,49 199.7,49 199.7,62 214.2,62 
			211.9,73.6 185.1,73.6 185.1,12.4 		"/>
		<polygon class="st0" points="174.9,12.4 174.9,73.5 161.1,73.5 161.1,45.6 152.6,69.1 144.1,45.6 144.1,73.5 130.2,73.5 
			130.2,12.4 144.9,12.4 152.6,37.6 160.2,12.4 		"/>
		<rect x="106.1" y="12.4" class="st0" width="14.2" height="61.2"/>
		<path class="st0" d="M96.6,46.5c0,0,0.2,3.1-2.1,5.7c-2.3,2.5-5,2.5-5,2.5l7.1,18.9H82.2l-6.5-19.2h-1.7v19.2h-14V12.4h28.3
			c0,0,3.1-0.2,5.7,2.1c2.5,2.3,2.5,4.9,2.5,4.9V46.5z M82.2,43l0.1-18.3c0,0,0-0.5-0.5-1c-0.5-0.5-1.1-0.4-1.1-0.4h-6.6v21.4h6.7
			c0,0,0.5,0,1-0.5C82.3,43.6,82.2,43,82.2,43z"/>
	</g>
</g>
</svg>
